<svg width="34" height="35" viewBox="0 0 40 31" fill="#B5BDA1" xmlns="http://www.w3.org/2000/svg">
<path d="M17.3168 22.5917L30.8293 11.7229L28.146 9.56459L17.3168 18.275L11.8543 13.8813L9.171 16.0396L17.3168 22.5917ZM20.0002 30.9167C17.3488 30.9167 14.8571 30.5117 12.5252 29.7018C10.1932 28.893 8.16475 27.7948 6.43975 26.4073C4.71475 25.0198 3.34944 23.3882 2.34383 21.5125C1.33694 19.6368 0.833496 17.6326 0.833496 15.5C0.833496 13.3674 1.33694 11.3632 2.34383 9.4875C3.34944 7.61181 4.71475 5.98021 6.43975 4.59271C8.16475 3.20521 10.1932 2.10652 12.5252 1.29663C14.8571 0.487766 17.3488 0.0833359 20.0002 0.0833359C22.6516 0.0833359 25.1432 0.487766 27.4752 1.29663C29.8071 2.10652 31.8356 3.20521 33.5606 4.59271C35.2856 5.98021 36.6509 7.61181 37.6565 9.4875C38.6634 11.3632 39.1668 13.3674 39.1668 15.5C39.1668 17.6326 38.6634 19.6368 37.6565 21.5125C36.6509 23.3882 35.2856 25.0198 33.5606 26.4073C31.8356 27.7948 29.8071 28.893 27.4752 29.7018C25.1432 30.5117 22.6516 30.9167 20.0002 30.9167Z" fill="#B5BDA1"/>
</svg>
