<svg version="1.2" xmlns="http://www.w3.org/2000/svg" viewBox="0 0 43 40" width="43" height="40">
	<title>image</title>
	<style>
		.s0 { fill: #C69C6C } 
	</style>
	<path id="Layer" class="s0" d="m37.5 34.6c0.1 2.9-2 4.7-5.8 4.8-3.9 0.1-6.7-1.9-9.9-1.8-3.3 0.1-5.9 2.3-9.9 2.4-3.7 0.1-5.9-1.6-6-4.4-0.2-6.4 8.8-16.8 15.3-17 6.6-0.2 16.1 9.6 16.3 16zm-31.1-10.4c-2.4 0.6-5-1.1-6-4-0.9-2.8 0.2-5.6 2.6-6.2 2.4-0.7 5.1 1.1 6 3.9 1 2.8-0.2 5.7-2.6 6.3zm3-13.3c-1-3.5 0.1-7 2.7-7.8 2.5-0.7 5.4 1.6 6.5 5.1 1.1 3.6-0.1 7-2.6 7.8-2.6 0.7-5.5-1.5-6.6-5.1zm32.7 8.1c-0.8 2.9-3.4 4.8-5.8 4.3-2.4-0.5-3.8-3.2-3-6.1 0.8-2.9 3.4-4.8 5.8-4.3 2.4 0.5 3.7 3.2 3 6.1zm-18.9-10.9c0.9-3.6 3.7-6.1 6.2-5.5 2.6 0.6 4 4 3.1 7.6-0.9 3.6-3.6 6.1-6.2 5.5-2.6-0.6-4-4-3.1-7.6z"/>
</svg>