<svg version="1.2" xmlns="http://www.w3.org/2000/svg" viewBox="0 0 34 35" width="34" height="35">
	<title>image</title>
	<style>
		.s0 { fill: #B5BDA1 } 
	</style>
	<path id="Layer" class="s0" d="m33.8 25.5c0.2 0.3 0.2 0.7 0.2 1.1l-1.6 7.1q-0.2 0.6-0.6 0.9-0.4 0.4-1 0.4c-17 0-30.8-14.2-30.8-31.7q0-0.6 0.3-1 0.4-0.5 0.9-0.6l6.9-1.7c0.4 0 0.8 0 1.1 0.2 0.4 0.2 0.6 0.4 0.8 0.8l3.2 7.6q0.2 0.6 0 1.1-0.1 0.5-0.5 0.9l-4 3.4c2.4 5.3 6.6 9.6 11.7 12.1l3.3-4.2q0.4-0.4 0.9-0.5 0.5-0.2 1 0.1l7.4 3.2c0.4 0.2 0.7 0.5 0.8 0.8z"/>
</svg>